<svg width="28" height="29" viewBox="0 0 28 29" fill="none" xmlns="http://www.w3.org/2000/svg">
<g id="help-circle@1x">
<path id="Vector" d="M14 26.3877C20.4433 26.3877 25.6666 21.1644 25.6666 14.721C25.6666 8.27771 20.4433 3.05437 14 3.05437C7.55665 3.05437 2.33331 8.27771 2.33331 14.721C2.33331 21.1644 7.55665 26.3877 14 26.3877Z" fill="#FEBE10" stroke="#FEBE10" stroke-width="1.3125"/>
<path id="Vector_2" d="M10.605 11.2211C10.8793 10.4414 11.4207 9.78391 12.1333 9.36508C12.8459 8.94628 13.6837 8.79319 14.4984 8.93292C15.313 9.07265 16.0519 9.49621 16.5842 10.1286C17.1166 10.7608 17.4078 11.5612 17.4066 12.3877C17.4066 14.7211 13.9066 15.8877 13.9066 15.8877" stroke="black" stroke-width="1.3125"/>
<path id="Vector_3" d="M14 20.7002V19.3877" stroke="black" stroke-width="1.3125"/>
</g>
</svg>
