<svg width="28" height="29" viewBox="0 0 28 29" fill="none" xmlns="http://www.w3.org/2000/svg">
<g id="rocket@1x">
<path id="Vector" d="M22.1462 16.4711V25.2817L18.4417 21.5771" stroke="#FEBE10" stroke-width="1.3125"/>
<path id="Vector_2" d="M11.8125 6.51202H3.50003L7.20458 10.2166" stroke="#FEBE10" stroke-width="1.3125"/>
<path id="Vector_3" d="M10.2706 7.95535C13.5322 4.81124 17.8859 3.05444 22.4162 3.05444H25.6667V6.06611C25.6667 10.4803 23.9985 14.7315 20.9964 17.9677L14.9538 24.4815L9.7978 19.1075L4.24094 13.768L10.2706 7.95535Z" fill="#FEBE10" stroke="#FEBE10" stroke-width="1.3125"/>
<path id="Vector_4" d="M4.66669 19.3878L9.33335 24.0544" stroke="#FEBE10" stroke-width="1.3125"/>
<path id="Vector_5" d="M20.942 9.57337C20.942 8.55036 20.1127 7.72107 19.0897 7.72107C18.0667 7.72107 17.2375 8.55037 17.2375 9.57337C17.2375 10.5963 18.0667 11.4257 19.0897 11.4257C20.1127 11.4257 20.942 10.5963 20.942 9.57337Z" stroke="black" stroke-width="1.3125"/>
</g>
</svg>
